<svg xmlns="http://www.w3.org/2000/svg" width="400" height="400" viewBox="0 0 410 210">
  <path fill="#6f42c1" d="M20.71 108.68L32.61 126L40.78 126L25.09 103.44L40.35 80.93L32.57 80.93L21.18 98.33L21.18 98.33L9.80 80.93L1.63 80.93L16.84 103.44L1.16 126L8.94 126L20.71 108.68L20.71 108.68Z"/>
  <path d="M73.91 120.37L73.91 120.37L74.08 120.37L74.08 126L80.61 126L80.61 94.80L80.61 94.80Q80.61 90.12 78.50 86.88L78.50 86.88L78.50 86.88Q76.40 83.63 72.70 81.91L72.70 81.91L72.70 81.91Q69.01 80.20 64.28 80.20L64.28 80.20L64.28 80.20Q60.33 80.20 57.32 81.18L57.32 81.18L57.32 81.18Q54.31 82.17 52.25 83.98L52.25 83.98L52.25 83.98Q50.19 85.78 49.07 88.25L49.07 88.25L49.07 88.25Q47.95 90.72 47.78 93.69L47.78 93.69L54.14 93.69L54.14 93.69Q54.48 90.21 57.00 88.10L57.00 88.10L57.00 88.10Q59.51 86.00 64.02 86.00L64.02 86.00L64.02 86.00Q68.75 86.00 71.31 88.47L71.31 88.47L71.31 88.47Q73.86 90.94 73.86 95.54L73.86 95.54L73.86 100.18L61.83 100.18L61.83 100.18Q54.10 100.22 50.08 103.70L50.08 103.70L50.08 103.70Q46.06 107.18 46.06 113.07L46.06 113.07L46.06 113.07Q46.06 119.25 50.14 122.99L50.14 122.99L50.14 122.99Q54.23 126.73 60.76 126.73L60.76 126.73L60.76 126.73Q64.11 126.73 66.62 125.91L66.62 125.91L66.62 125.91Q69.14 125.10 70.94 123.66L70.94 123.66L70.94 123.66Q72.75 122.22 73.91 120.37ZM62.43 120.93L62.43 120.93L62.43 120.93Q58.78 120.93 55.90 118.97L55.90 118.97L55.90 118.97Q53.02 117.02 53.02 112.89L53.02 112.89L53.02 112.89Q53.02 109.71 55.15 107.70L55.15 107.70L55.15 107.70Q57.28 105.68 62.09 105.68L62.09 105.68L73.86 105.68L73.86 111.00L73.86 111.00Q73.86 113.93 72.38 116.16L72.38 116.16L72.38 116.16Q70.90 118.39 68.32 119.66L68.32 119.66L68.32 119.66Q65.74 120.93 62.43 120.93ZM91.82 93.73L91.82 93.73L91.82 93.73Q91.82 97.77 93.91 100.18L93.91 100.18L93.91 100.18Q95.99 102.58 99.49 103.89L99.49 103.89L99.49 103.89Q103.00 105.20 107.21 106.11L107.21 106.11L107.21 106.11Q110.43 106.71 112.99 107.46L112.99 107.46L112.99 107.46Q115.54 108.21 117.05 109.61L117.05 109.61L117.05 109.61Q118.55 111.00 118.55 113.63L118.55 113.63L118.55 113.63Q118.55 115.60 117.46 117.28L117.46 117.28L117.46 117.28Q116.36 118.95 114.06 119.96L114.06 119.96L114.06 119.96Q111.76 120.97 108.15 120.97L108.15 120.97L108.15 120.97Q105.06 120.97 102.82 120.09L102.82 120.09L102.82 120.09Q100.59 119.21 99.30 117.64L99.30 117.64L99.30 117.64Q98.01 116.07 97.67 113.97L97.67 113.97L91.05 113.97L91.05 113.97Q91.05 118.01 93.18 120.87L93.18 120.87L93.18 120.87Q95.30 123.72 99.04 125.23L99.04 125.23L99.04 125.23Q102.78 126.73 107.59 126.73L107.59 126.73L107.59 126.73Q112.79 126.73 116.77 125.12L116.77 125.12L116.77 125.12Q120.74 123.51 122.98 120.39L122.98 120.39L122.98 120.39Q125.21 117.28 125.21 112.81L125.21 112.81L125.21 112.81Q125.21 108.34 123.04 105.89L123.04 105.89L123.04 105.89Q120.87 103.44 117.30 102.22L117.30 102.22L117.30 102.22Q113.74 100.99 109.48 100.26L109.48 100.26L109.48 100.26Q106.91 99.79 104.37 99.08L104.37 99.08L104.37 99.08Q101.84 98.37 100.14 96.97L100.14 96.97L100.14 96.97Q98.44 95.58 98.44 93L98.44 93L98.44 93Q98.44 89.52 101.15 87.74L101.15 87.74L101.15 87.74Q103.86 85.95 107.98 85.95L107.98 85.95L107.98 85.95Q111.63 85.95 113.72 87.13L113.72 87.13L113.72 87.13Q115.80 88.32 116.70 90.10L116.70 90.10L116.70 90.10Q117.61 91.88 117.73 93.69L117.73 93.69L124.09 93.69L124.09 93.69Q124.09 89.99 122.33 86.94L122.33 86.94L122.33 86.94Q120.57 83.89 117.07 82.04L117.07 82.04L117.07 82.04Q113.57 80.20 108.28 80.20L108.28 80.20L108.28 80.20Q104.03 80.20 100.27 81.61L100.27 81.61L100.27 81.61Q96.51 83.03 94.17 86.02L94.17 86.02L94.17 86.02Q91.82 89.00 91.82 93.73ZM138.75 69.58L138.75 80.93L132.73 80.93L132.73 86.68L138.75 86.68L138.75 113.41L138.75 113.41Q138.75 117.79 139.67 120.69L139.67 120.69L139.67 120.69Q140.59 123.59 143.28 125.01L143.28 125.01L143.28 125.01Q145.96 126.43 151.25 126.43L151.25 126.43L151.25 126.43Q152.32 126.43 153.33 126.32L153.33 126.32L153.33 126.32Q154.34 126.21 154.77 126.13L154.77 126.13L154.77 120.59L154.77 120.59Q154.34 120.63 153.91 120.65L153.91 120.65L153.91 120.65Q153.48 120.67 152.97 120.67L152.97 120.67L152.97 120.67Q148.67 120.67 147.08 119.30L147.08 119.30L147.08 119.30Q145.49 117.92 145.49 113.75L145.49 113.75L145.49 86.68L154.43 86.68L154.43 80.93L145.49 80.93L145.49 69.58L138.75 69.58Z"/>
</svg>
