<svg xmlns="http://www.w3.org/2000/svg" width="1012" height="300" viewBox="0 0 1012 300">
  <style>
    .b {fill: #0d1117}
    .l {fill: #fff}
    @media (prefers-color-scheme: light) {
      .b {fill: #fff}
      .l {fill: #0d1117}
    }
  </style>
  <rect class="b" x="0" y="0" width="1012" height="300" />
  <path fill="#6f42c2" d="M450.76 156.71L451.11 156.71L459.70 169.60L464.30 169.60L453.10 153.57L464.18 138.05L459.75 138.05L451.23 150.64L450.88 150.64L442.29 138.05L437.67 138.05L448.89 153.72L437.75 169.60L442.15 169.60L450.76 156.71Z"/>
  <path class="l" d="M485.27 170.16L485.27 170.16Q488.85 170.16 491.38 168.74Q493.92 167.31 495.03 164.65L495.03 164.65L495.44 164.65L495.44 169.63L499.13 169.63L499.13 147.95Q499.13 143.14 496.16 140.46Q493.18 137.78 487.82 137.78L487.82 137.78Q484.77 137.78 482.30 138.82Q479.82 139.86 478.26 141.68Q476.69 143.50 476.40 145.87L476.40 145.87L480.20 145.87Q480.88 143.58 482.86 142.35Q484.83 141.12 487.82 141.12L487.82 141.12Q491.45 141.12 493.36 142.92Q495.26 144.73 495.26 148.13L495.26 148.13L495.26 151.11L486.12 151.52Q480.91 151.76 478.05 154.15Q475.19 156.53 475.19 160.69L475.19 160.69Q475.19 164.97 477.96 167.56Q480.73 170.16 485.27 170.16ZM486.21 166.76L486.21 166.76Q482.93 166.76 481.04 165.13Q479.15 163.51 479.15 160.69L479.15 160.69Q479.15 155.01 486.39 154.69L486.39 154.69L495.26 154.31L495.26 158.70Q495.26 160.96 494.06 162.79Q492.86 164.62 490.81 165.69Q488.76 166.76 486.21 166.76ZM514.13 146.25L514.13 146.25Q514.13 152.67 522.51 154.63L522.51 154.63L527.17 155.74Q530.39 156.50 531.77 157.75Q533.14 158.99 533.14 161.16L533.14 161.16Q533.14 163.74 531.05 165.29Q528.95 166.85 525.41 166.85L525.41 166.85Q522.13 166.85 519.95 165.48Q517.76 164.12 517.15 161.69L517.15 161.69L513.16 161.69Q513.60 165.59 516.85 167.86Q520.11 170.13 525.23 170.13L525.23 170.13Q530.62 170.13 533.88 167.61Q537.13 165.09 537.13 160.93L537.13 160.93Q537.13 157.59 534.99 155.52Q532.85 153.46 528.31 152.37L528.31 152.37L524.03 151.38Q520.81 150.62 519.40 149.38Q518.00 148.15 518.00 146.10L518.00 146.10Q518.00 143.64 519.96 142.18Q521.92 140.71 525.20 140.71L525.20 140.71Q528.22 140.71 530.24 142.05Q532.26 143.38 532.76 145.69L532.76 145.69L536.54 145.69Q536.04 141.94 533.00 139.73Q529.95 137.52 525.32 137.52L525.32 137.52Q520.34 137.52 517.24 139.94Q514.13 142.35 514.13 146.25ZM561.12 129.84L557.28 129.84L557.28 138.05L548.79 138.05L548.79 141.30L557.28 141.30L557.28 160.49Q557.28 163.59 558.54 165.66Q559.80 167.72 562.32 168.75Q564.84 169.78 568.62 169.78L568.62 169.78Q570.00 169.78 571.82 169.66Q573.63 169.54 574.33 169.42L574.33 169.42L574.33 166.14Q573.57 166.26 572.02 166.32Q570.47 166.38 568.83 166.38L568.83 166.38Q565.08 166.38 563.10 164.84Q561.12 163.30 561.12 160.37L561.12 160.37L561.12 141.30L574.33 141.30L574.33 138.05L561.12 138.05L561.12 129.84Z"/>
</svg>
